<mxfile host="app.diagrams.net" modified="2021-07-01T03:50:06.336Z" agent="5.0 (Windows NT 10.0; Win64; x64) AppleWebKit/537.36 (KHTML, like Gecko) Chrome/91.0.4472.114 Safari/537.36 Edg/91.0.864.59" etag="igkPo1iT-QG4BHlDg2xR" version="14.8.2" type="github">
  <diagram id="Ezy-y-FbjfAG1BCbXXI5" name="Page-1">
    <mxGraphModel dx="1038" dy="617" grid="1" gridSize="10" guides="1" tooltips="1" connect="1" arrows="1" fold="1" page="1" pageScale="1" pageWidth="850" pageHeight="1100" math="0" shadow="0">
      <root>
        <mxCell id="0" />
        <mxCell id="1" parent="0" />
        <mxCell id="hrU85InFywEGXKXuBzPO-11" value="" style="edgeStyle=orthogonalEdgeStyle;rounded=0;orthogonalLoop=1;jettySize=auto;html=1;" edge="1" parent="1" source="hrU85InFywEGXKXuBzPO-2" target="hrU85InFywEGXKXuBzPO-4">
          <mxGeometry relative="1" as="geometry" />
        </mxCell>
        <mxCell id="hrU85InFywEGXKXuBzPO-2" value="Begin" style="ellipse;whiteSpace=wrap;html=1;" vertex="1" parent="1">
          <mxGeometry x="170" y="20" width="120" height="80" as="geometry" />
        </mxCell>
        <mxCell id="hrU85InFywEGXKXuBzPO-9" value="" style="edgeStyle=orthogonalEdgeStyle;rounded=0;orthogonalLoop=1;jettySize=auto;html=1;" edge="1" parent="1" source="hrU85InFywEGXKXuBzPO-3" target="hrU85InFywEGXKXuBzPO-7">
          <mxGeometry relative="1" as="geometry" />
        </mxCell>
        <mxCell id="hrU85InFywEGXKXuBzPO-3" value="stop = s&lt;br&gt;count = 0" style="shape=parallelogram;perimeter=parallelogramPerimeter;whiteSpace=wrap;html=1;fixedSize=1;" vertex="1" parent="1">
          <mxGeometry x="150" y="230" width="160" height="70" as="geometry" />
        </mxCell>
        <mxCell id="hrU85InFywEGXKXuBzPO-10" value="" style="edgeStyle=orthogonalEdgeStyle;rounded=0;orthogonalLoop=1;jettySize=auto;html=1;" edge="1" parent="1" source="hrU85InFywEGXKXuBzPO-4" target="hrU85InFywEGXKXuBzPO-3">
          <mxGeometry relative="1" as="geometry" />
        </mxCell>
        <mxCell id="hrU85InFywEGXKXuBzPO-4" value="&lt;span&gt;Nhận chỉ thị từ&lt;/span&gt;&lt;br&gt;&lt;span&gt;GUI app (vị trí dừng = s)&lt;/span&gt;" style="rounded=0;whiteSpace=wrap;html=1;" vertex="1" parent="1">
          <mxGeometry x="160" y="120" width="140" height="70" as="geometry" />
        </mxCell>
        <mxCell id="hrU85InFywEGXKXuBzPO-12" value="" style="edgeStyle=orthogonalEdgeStyle;rounded=0;orthogonalLoop=1;jettySize=auto;html=1;" edge="1" parent="1" source="hrU85InFywEGXKXuBzPO-5" target="hrU85InFywEGXKXuBzPO-8">
          <mxGeometry relative="1" as="geometry" />
        </mxCell>
        <mxCell id="hrU85InFywEGXKXuBzPO-16" value="" style="edgeStyle=orthogonalEdgeStyle;rounded=0;orthogonalLoop=1;jettySize=auto;html=1;" edge="1" parent="1" source="hrU85InFywEGXKXuBzPO-5" target="hrU85InFywEGXKXuBzPO-14">
          <mxGeometry relative="1" as="geometry" />
        </mxCell>
        <mxCell id="hrU85InFywEGXKXuBzPO-5" value="count &amp;lt; stop" style="rhombus;whiteSpace=wrap;html=1;" vertex="1" parent="1">
          <mxGeometry x="145" y="420" width="170" height="80" as="geometry" />
        </mxCell>
        <mxCell id="hrU85InFywEGXKXuBzPO-15" value="" style="edgeStyle=orthogonalEdgeStyle;rounded=0;orthogonalLoop=1;jettySize=auto;html=1;" edge="1" parent="1" source="hrU85InFywEGXKXuBzPO-7" target="hrU85InFywEGXKXuBzPO-5">
          <mxGeometry relative="1" as="geometry" />
        </mxCell>
        <mxCell id="hrU85InFywEGXKXuBzPO-7" value="Input sensors&lt;br&gt;(S1,S2,S3,S4,S5)" style="shape=parallelogram;perimeter=parallelogramPerimeter;whiteSpace=wrap;html=1;fixedSize=1;" vertex="1" parent="1">
          <mxGeometry x="160" y="330" width="140" height="60" as="geometry" />
        </mxCell>
        <mxCell id="hrU85InFywEGXKXuBzPO-18" value="" style="edgeStyle=orthogonalEdgeStyle;rounded=0;orthogonalLoop=1;jettySize=auto;html=1;" edge="1" parent="1" source="hrU85InFywEGXKXuBzPO-8" target="hrU85InFywEGXKXuBzPO-17">
          <mxGeometry relative="1" as="geometry" />
        </mxCell>
        <mxCell id="hrU85InFywEGXKXuBzPO-8" value="s1,s2,s3..." style="rhombus;whiteSpace=wrap;html=1;" vertex="1" parent="1">
          <mxGeometry x="400" y="420" width="115" height="80" as="geometry" />
        </mxCell>
        <mxCell id="hrU85InFywEGXKXuBzPO-13" value="True" style="text;html=1;align=center;verticalAlign=middle;resizable=0;points=[];autosize=1;strokeColor=none;" vertex="1" parent="1">
          <mxGeometry x="310" y="440" width="40" height="20" as="geometry" />
        </mxCell>
        <mxCell id="hrU85InFywEGXKXuBzPO-21" value="" style="edgeStyle=orthogonalEdgeStyle;rounded=0;orthogonalLoop=1;jettySize=auto;html=1;" edge="1" parent="1" source="hrU85InFywEGXKXuBzPO-14" target="hrU85InFywEGXKXuBzPO-20">
          <mxGeometry relative="1" as="geometry" />
        </mxCell>
        <mxCell id="hrU85InFywEGXKXuBzPO-14" value="count = stop" style="rhombus;whiteSpace=wrap;html=1;" vertex="1" parent="1">
          <mxGeometry x="155" y="530" width="150" height="80" as="geometry" />
        </mxCell>
        <mxCell id="hrU85InFywEGXKXuBzPO-17" value="process" style="rounded=0;whiteSpace=wrap;html=1;" vertex="1" parent="1">
          <mxGeometry x="560" y="430" width="120" height="60" as="geometry" />
        </mxCell>
        <mxCell id="hrU85InFywEGXKXuBzPO-19" value="" style="curved=1;endArrow=classic;html=1;exitX=0.5;exitY=0;exitDx=0;exitDy=0;entryX=1;entryY=0.5;entryDx=0;entryDy=0;" edge="1" parent="1" source="hrU85InFywEGXKXuBzPO-17" target="hrU85InFywEGXKXuBzPO-7">
          <mxGeometry width="50" height="50" relative="1" as="geometry">
            <mxPoint x="380" y="390" as="sourcePoint" />
            <mxPoint x="430" y="340" as="targetPoint" />
            <Array as="points">
              <mxPoint x="430" y="390" />
              <mxPoint x="380" y="340" />
            </Array>
          </mxGeometry>
        </mxCell>
        <mxCell id="hrU85InFywEGXKXuBzPO-20" value="Dừng 10s" style="rounded=0;whiteSpace=wrap;html=1;" vertex="1" parent="1">
          <mxGeometry x="370" y="540" width="120" height="60" as="geometry" />
        </mxCell>
        <mxCell id="hrU85InFywEGXKXuBzPO-22" value="True" style="text;html=1;align=center;verticalAlign=middle;resizable=0;points=[];autosize=1;strokeColor=none;" vertex="1" parent="1">
          <mxGeometry x="300" y="550" width="40" height="20" as="geometry" />
        </mxCell>
      </root>
    </mxGraphModel>
  </diagram>
</mxfile>
